<svg width="307" height="223" viewBox="0 0 307 223" fill="none" xmlns="http://www.w3.org/2000/svg">
    <path d="M43.014 102.407v2.311M37.824 103.659l1.888 1.944M35.615 108.833h2.67M37.607 114.1l1.889-1.944M43.014 114.732v-2.311M46.865 113.191l-1.54-1.54M49.947 109.34h-2.311M48.406 103.948l-1.54 1.54M167.03 1.5v1.54M162.408 6.122h1.541M167.03 10.743v-1.54M170.881 6.122h-1.54M77.677 66.204v2.31M70.744 73.136h2.311M77.677 79.299v-2.311M83.84 73.136h-2.312M243.483 150.195a3.335 3.335 0 1 1-3.333 3.335" stroke="#D1D1DA" stroke-width="2.25" stroke-linecap="round"/>
    <path fill-rule="evenodd" clip-rule="evenodd" d="M258.74 119.942c1.98-.618 5.014-3.039 5.717-5.643.636 2.302 3.307 5.025 5.716 5.231-2.712.961-5.305 3.813-5.716 6.054-.28-2.284-3.867-5.309-5.717-5.642zM55.548 149.168c.99-.309 2.506-1.519 2.858-2.821.318 1.15 1.653 2.512 2.857 2.615-1.355.48-2.651 1.907-2.857 3.027-.14-1.142-1.934-2.655-2.858-2.821z" fill="#E3E3EE"/>
    <path fill-rule="evenodd" clip-rule="evenodd" d="M73.921 42.015a2.585 2.585 0 1 1-5.17.001 2.585 2.585 0 0 1 5.17-.001z" fill="#D1D8DF"/>
    <path fill-rule="evenodd" clip-rule="evenodd" d="M246.538 48.958a4.322 4.322 0 1 1-8.643 0 4.322 4.322 0 0 1 8.643 0zM306.385 37.249a3.427 3.427 0 1 1-6.854 0 3.427 3.427 0 1 1 6.854 0z" fill="#E3E3EE"/>
    <path clip-rule="evenodd" d="M122.233 197.359a2.161 2.161 0 1 1-4.322 0 2.161 2.161 0 0 1 4.322 0zM120.947 25.403a2.585 2.585 0 1 1-5.17.002 2.585 2.585 0 0 1 5.17-.002zM186.886 221.29a3.2 3.2 0 1 1-2.276-5.983 3.2 3.2 0 0 1 2.276 5.983z" stroke="#D1D1DA" stroke-width="2.25" stroke-linecap="round"/>
    <path fill-rule="evenodd" clip-rule="evenodd" d="M185.901 160.178h-63.167c-4.446 0-8.085-3.65-8.085-8.11v-90.08c0-4.46 3.639-8.109 8.085-8.109h63.167c4.448 0 8.087 3.649 8.087 8.11v90.079c0 4.46-3.639 8.11-8.087 8.11z" fill="#D1D1DA"/>
    <path fill-rule="evenodd" clip-rule="evenodd" d="M180.509 164.03h-63.167c-4.446 0-8.085-3.65-8.085-8.111v-90.08c0-4.46 3.639-8.108 8.085-8.108h63.167c4.448 0 8.087 3.648 8.087 8.109v90.079c0 4.461-3.639 8.111-8.087 8.111z" fill="#E3E3EE"/>
    <path fill-rule="evenodd" clip-rule="evenodd" d="M175.264 167.07h-63.297c-4.455 0-8.102-3.635-8.102-8.077V69.287c0-4.443 3.647-8.076 8.102-8.076h63.297c4.457 0 8.104 3.633 8.104 8.076v89.706c0 4.442-3.647 8.077-8.104 8.077z" fill="#D8DBEA"/>
    <path fill-rule="evenodd" clip-rule="evenodd" d="M175.264 167.07h-63.297c-4.455 0-8.102-3.635-8.102-8.077V69.287c0-4.443 3.647-8.076 8.102-8.076h63.297c4.457 0 8.104 3.633 8.104 8.076v89.706c0 4.442-3.647 8.077-8.104 8.077z" fill="#F7F7FC"/>
    <path fill-rule="evenodd" clip-rule="evenodd" d="M166.141 88.542h-46.753c-1.335 0-2.428-1.04-2.428-2.31 0-1.272 1.093-2.312 2.428-2.312h46.753c1.335 0 2.428 1.04 2.428 2.312 0 1.27-1.093 2.31-2.428 2.31zM166.141 102.407h-46.753c-1.335 0-2.428-1.04-2.428-2.31 0-1.272 1.093-2.311 2.428-2.311h46.753c1.335 0 2.428 1.04 2.428 2.311 0 1.27-1.093 2.31-2.428 2.31zM166.141 116.272h-46.753c-1.335 0-2.428-1.039-2.428-2.31 0-1.27 1.093-2.311 2.428-2.311h46.753c1.335 0 2.428 1.041 2.428 2.311 0 1.271-1.093 2.31-2.428 2.31zM166.141 130.137h-46.753c-1.335 0-2.428-1.039-2.428-2.31 0-1.272 1.093-2.311 2.428-2.311h46.753c1.335 0 2.428 1.039 2.428 2.311 0 1.271-1.093 2.31-2.428 2.31zM143.792 144.003h-24.394c-1.34 0-2.438-1.04-2.438-2.31 0-1.272 1.098-2.312 2.438-2.312h24.394c1.341 0 2.439 1.04 2.439 2.312 0 1.27-1.098 2.31-2.439 2.31z" fill="#D1D1DA"/>
    <path fill-rule="evenodd" clip-rule="evenodd" d="M193.029 126.083c-9.348 9.347-23.821 10.402-34.329 3.185a28.322 28.322 0 0 1-3.812-3.185 25.913 25.913 0 0 1-4.564-6.111 25.78 25.78 0 0 1-2.827-7.799c-1.65-8.494.818-17.638 7.391-24.207 6.588-6.59 15.733-9.042 24.229-7.407a26.66 26.66 0 0 1 7.8 2.826c1.464.8 2.86 1.754 4.189 2.844a25.647 25.647 0 0 1 1.906 1.737 26.87 26.87 0 0 1 3.185 3.812c7.22 10.503 6.163 24.976-3.168 34.305z" fill="#fff" fill-opacity=".1"/>
    <path fill-rule="evenodd" clip-rule="evenodd" d="M190.413 124.242c-9.726 9.728-25.488 9.726-35.215 0-9.716-9.715-9.716-25.479.012-35.205 9.715-9.715 25.477-9.715 35.192 0 9.727 9.726 9.727 25.49.011 35.205zm4.992-40.202c-12.484-12.484-32.715-12.484-45.199 0-12.482 12.483-12.493 32.726-.011 45.21 11.362 11.358 29.171 12.383 41.697 3.057a32.421 32.421 0 0 0 3.526-3.057 32.291 32.291 0 0 0 3.055-3.526c9.326-12.527 8.292-30.324-3.068-41.684z" fill="#D1D1DA"/>
    <path fill-rule="evenodd" clip-rule="evenodd" d="m244.536 176.31-.524.524c-3.468 3.469-9.146 3.469-12.615 0l-32.017-32.017 13.139-13.139 32.017 32.017c3.469 3.469 3.469 9.145 0 12.615z" fill="#C2C2CD"/>
    <path fill-rule="evenodd" clip-rule="evenodd" d="m199.163 124.745 9.461 9.461-6.717 6.715-9.459-9.461a33.185 33.185 0 0 0 3.597-3.119 32.682 32.682 0 0 0 3.118-3.596z" fill="#D1D1DA"/>
    <path fill-rule="evenodd" clip-rule="evenodd" d="m244.057 163.301-13.056 13.053-2.35-2.352 13.054-13.053 2.352 2.352zM213.246 132.13l-13.413 13.413-1.993-1.993 13.413-13.413 1.993 1.993z" fill="#B9B9C7"/>
    <path fill-rule="evenodd" clip-rule="evenodd" d="m183.975 85.691-32.894 32.892a23.101 23.101 0 0 1-2.539-7.011l28.421-28.422a24.015 24.015 0 0 1 7.012 2.541zM194.759 93.51l-35.562 33.546a26.38 26.38 0 0 1-3.616-2.848 23.413 23.413 0 0 1-1.647-1.707l35.995-33.959c.63.488 1.228 1.007 1.809 1.556a24.569 24.569 0 0 1 3.021 3.411z" fill="#fff" fill-opacity=".5"/>
</svg>
